# xmcd
#
# Track frame offsets:
#	150
#	17775
#	34725
#	52125
#	69375
#	90075
#	106950
#	127200
#	144150
#	161475
#	181875
#	198525
#	216300
#	233100
#	248775
#	267900
#
# Disc length: 3814 seconds
#
# Revision: 1
# Processed by: cddbd v1.5.2PL0 Copyright (c) Steve Scherf et al.
# Submitted via: audiograbber 1.83.01
#
DISCID=e00ee410
DTITLE=Various Artist - Party Tyme Karaoke - Country Hits 11
DYEAR=2012
DGENRE=Karaoke
TTITLE0=Kip Moore - Somethin' 'Bout A Truck
TTITLE1=Luke Bryan - Drunk On You
TTITLE2=Little Big Town - Pontoon
TTITLE3=Lee Brice - A Woman Like You
TTITLE4=Taylor Swift - Sparks Fly
TTITLE5=Jake Owen - Alone With You
TTITLE6=Brad Paisley and Carrie Underwood - Remind Me
TTITLE7=Keith Urban - You Gonna Fly
TTITLE8=Blake Shelton - Drink On It
TTITLE9=Miranda Lambert - Over You
TTITLE10=Eli Young Band - Crazy Girl
TTITLE11=The Band Perry - Postcard From Paris
TTITLE12=Tim McGraq - Truck Yeah
TTITLE13=Pistol Annies - Hell On Wheels
TTITLE14=Dierks Bentley - Home
TTITLE15=Jana Kramer - Why Ya Wanna
EXTD=
EXTT0=
EXTT1=
EXTT2=
EXTT3=
EXTT4=
EXTT5=
EXTT6=
EXTT7=
EXTT8=
EXTT9=
EXTT10=
EXTT11=
EXTT12=
EXTT13=
EXTT14=
EXTT15=
PLAYORDER=
